<svg width="30" height="26" viewBox="0 0 30 26" fill="none" xmlns="http://www.w3.org/2000/svg">
<path fill-rule="evenodd" clip-rule="evenodd" d="M22 21.45C22.7483 21.45 23.3333 22.0204 23.3333 22.75C23.3333 23.4793 22.7483 24.05 22 24.05C21.252 24.05 20.6667 23.4793 20.6667 22.75C20.6667 22.0204 21.252 21.45 22 21.45V21.45ZM12 21.45C12.7483 21.45 13.3333 22.0204 13.3333 22.75C13.3333 23.4793 12.7483 24.05 12 24.05C11.252 24.05 10.6667 23.4793 10.6667 22.75C10.6667 22.0204 11.252 21.45 12 21.45V21.45ZM22 19.5C20.171 19.5 18.6667 20.9667 18.6667 22.75C18.6667 24.5333 20.171 26 22 26C23.829 26 25.3333 24.5333 25.3333 22.75C25.3333 20.9667 23.829 19.5 22 19.5V19.5ZM12 19.5C10.171 19.5 8.66667 20.9667 8.66667 22.75C8.66667 24.5333 10.171 26 12 26C13.8293 26 15.3333 24.5333 15.3333 22.75C15.3333 20.9667 13.8293 19.5 12 19.5V19.5ZM21.6667 10.075H26.573L25.875 13H21.6667V10.075ZM15 13H19.6667V10.075H15V13ZM8 10.075H13V13H8.63567L8 10.075ZM21.6667 5.2H27.7397L27.0417 8.125H21.6667V5.2ZM15 8.125H19.6667V5.2H15V8.125ZM6.93767 5.2H13V8.125H7.573L6.93767 5.2ZM1 2.33504e-07C0.447667 2.33504e-07 0 0.436475 0 0.975C0 1.51353 0.447667 1.95 1 1.95H4.18767L7.625 17.7632C7.761 18.3583 8.16133 18.8539 8.66667 18.85H25.3333C25.8617 18.8568 26.3477 18.3901 26.3477 17.875C26.3477 17.3599 25.8617 16.8928 25.3333 16.9H9.47933L9.05233 14.95H26.6667C27.1147 14.9467 27.5373 14.6143 27.6353 14.1882L29.9687 4.4382C30.099 3.87238 29.5947 3.25423 29 3.25H6.521L5.97933 0.771875C5.88467 0.33865 5.454 -0.000324766 5 2.33504e-07H1Z" fill="black"/>
</svg>
